<?xml version="1.0" standalone="no"?><?xml-stylesheet type="text/css" href="https://www.processon.com/themes/default/mind/icons/icons.css" ?><!DOCTYPE svg PUBLIC "-//W3C//DTD SVG 1.1//EN" "http://www.w3.org/Graphics/SVG/1.1/DTD/svg11.dtd">
<svg xmlns="http://www.w3.org/2000/svg" version="1.1" xlink="http://www.w3.org/1999/xlink" id="mind-svg-con" width="2148.65625px" height="1348.15625px" style="position: absolute; left: 0px; top: 0px; width: 2148.66px; height: 1348.16px; background: rgb(247, 247, 247); z-index: 999;"><defs></defs><g id="svgbackgroundid"><defs></defs><rect x="0" y="0" width="2148.65625" height="1348.15625" fill="#F7F7F7"></rect></g><g transform="translate(-9884, -9248.5)" id="sdjakdjak5"><defs></defs><g class="svg-topic-con" transform="translate(0.5,0.5)"><path part="right" sub="true" id="line_d5d0415b66bc" d="M 10000 9936 L 10081 9936 C 10121 9936 10121 9332 10186 9332 L 10310 9332" stroke="#7549C5" fill="none" stroke-linecap="round" stroke-width="3"></path><path part="right" sub="true" id="line_153b6a89c8f5" d="M 10000 9936 L 10081 9936 C 10121 9936 10121 9587 10186 9587 L 10278 9587" stroke="#80BA4C" fill="none" stroke-linecap="round" stroke-width="3"></path><path part="right" sub="true" id="line_e8b7a678aff8" d="M 10000 9936 L 10081 9936 C 10121 9936 10121 10170.5 10186 10170.5 L 10481 10170.5" stroke="#0FBAB0" fill="none" stroke-linecap="round" stroke-width="3"></path><path part="right" sub="true" id="line_8b771c2c5625" d="M 10000 9936 L 10081 9936 C 10121 9936 10121 10565 10186 10565 L 10322 10565" stroke="#DD489D" fill="none" stroke-linecap="round" stroke-width="3"></path></g><g class="svg-connection-con" transform="translate(0.5,0.5)"></g><g class="svg-freesums-con" transform="translate(0.5,0.5)"><path id="sum_30a65e8aa580" fill="none" stroke="#bf1e1b" stroke-width="1" d=" M 11242 9386 C 11259 9390 11234 9567 11256 9572 M 11242 9758 C 11259 9754 11234 9577 11256 9572" stroke-linecap="round"></path></g><g class="svg-freebos-con" transform="translate(0.5,0.5)"></g></g><g id="8b771c2c5625"><rect x="302" y="1286" rx="1px" ry="1px" width="136" height="30" style="fill: transparent; stroke:none;"></rect><g><text text-anchor="start" align="top" anchor="start" font-size="16px" font-weight="normal" fill="rgb(13, 11, 34)" style="font-size:16px;font-family:微软雅黑;color:#0D0B22;font-style:normal;text-align:left;font-weight:normal;font-style: normal;"><tspan x="316" y="1307.65625"><tspan>建模&amp;模型评估</tspan></tspan></text></g></g><g id="2b8e32957503"><rect x="513.625" y="1286.15625" rx="1px" ry="1px" width="70" height="30" style="fill: transparent; stroke:none;"></rect><g><text text-anchor="start" align="top" anchor="start" font-size="13px" font-weight="400" fill="rgb(13, 11, 34)" style="font-size:13px;font-family:微软雅黑;color:#0D0B22;font-style:normal;text-align:left;font-weight:400;font-style: normal;"><tspan x="522.625" y="1306.703125"><tspan>后续讲解</tspan></tspan></text></g></g><g id="e8b7a678aff8"><rect x="302" y="870.890625" rx="1px" ry="1px" width="295" height="51" style="fill: transparent; stroke:none;"></rect><g><text text-anchor="start" align="top" anchor="start" font-size="16px" font-weight="normal" fill="rgb(13, 11, 34)" style="font-size:16px;font-family:微软雅黑;color:#0D0B22;font-style:normal;text-align:left;font-weight:normal;font-style: normal;"><tspan x="316" y="890.890625"><tspan>数据预处理</tspan></tspan><tspan x="316" y="913.290625"><tspan>(基于数据探索情况，做相关的预处理)</tspan></tspan></text></g></g><g id="898cb76c3814"><rect x="672.65625" y="716.15625" rx="1px" ry="1px" width="70" height="30" style="fill: transparent; stroke:none;"></rect><g><text text-anchor="start" align="top" anchor="start" font-size="13px" font-weight="400" fill="rgb(13, 11, 34)" style="font-size:13px;font-family:微软雅黑;color:#0D0B22;font-style:normal;text-align:left;font-weight:400;font-style: normal;"><tspan x="681.65625" y="736.703125"><tspan>数据清洗</tspan></tspan></text></g></g><g id="9788445556fd"><rect x="818.65625" y="539" rx="1px" ry="1px" width="70" height="30" style="fill: transparent; stroke:none;"></rect><g><text text-anchor="start" align="top" anchor="start" font-size="13px" font-weight="400" fill="rgb(13, 11, 34)" style="font-size:13px;font-family:微软雅黑;color:#0D0B22;font-style:normal;text-align:left;font-weight:400;font-style: normal;"><tspan x="827.65625" y="559.546875"><tspan>基本概念</tspan></tspan></text></g></g><g id="4574df227846"><rect x="964.65625" y="539" rx="1px" ry="1px" width="538" height="30" style="fill: transparent; stroke:none;"></rect><g><text text-anchor="start" align="top" anchor="start" font-size="13px" font-weight="400" fill="rgb(13, 11, 34)" style="font-size:13px;font-family:微软雅黑;color:#0D0B22;font-style:normal;text-align:left;font-weight:400;font-style: normal;"><tspan x="973.65625" y="559.546875"><tspan>数据清洗主要包括如删除重复数据、删除于主题无关的数据、处理缺失值、处理异常值等等</tspan></tspan></text></g></g><g id="08bcaf624255"><rect x="818.65625" y="739.515625" rx="1px" ry="1px" width="70" height="30" style="fill: transparent; stroke:none;"></rect><g><text text-anchor="start" align="top" anchor="start" font-size="13px" font-weight="400" fill="rgb(13, 11, 34)" style="font-size:13px;font-family:微软雅黑;color:#0D0B22;font-style:normal;text-align:left;font-weight:400;font-style: normal;"><tspan x="827.65625" y="760.0625"><tspan>常见处理</tspan></tspan></text></g></g><g id="48abc62e4d12"><rect x="964.65625" y="643.421875" rx="1px" ry="1px" width="83" height="29" style="fill: transparent; stroke:none;"></rect><g><text text-anchor="start" align="top" anchor="start" font-size="13px" font-weight="400" fill="rgb(13, 11, 34)" style="font-size:13px;font-family:微软雅黑;color:#0D0B22;font-style:normal;text-align:left;font-weight:400;font-style: normal;"><tspan x="973.65625" y="663.96875"><tspan>缺失值处理</tspan></tspan></text></g></g><g id="da65ed5c9599"><rect x="1123.65625" y="585.734375" rx="1px" ry="1px" width="95" height="35" style="fill: transparent; stroke:none;"></rect><g><text text-anchor="start" align="top" anchor="start" font-size="13px" font-weight="400" fill="rgb(13, 11, 34)" style="font-size:13px;font-family:微软雅黑;color:#0D0B22;font-style:normal;text-align:left;font-weight:400;font-style: normal;"><tspan x="1157.65625" y="606.28125"><tspan>删除记录</tspan></tspan></text></g><g><path d="M784.352 184.224c-15.968-6.624-34.304-2.944-46.496 9.248-53.92 53.888-141.696 53.92-195.68 0-87.264-87.168-229.12-87.168-316.32 0-8.032 7.968-12.512 18.848-12.512 30.176l0 554.656c0 23.552 19.072 42.656 42.656 42.656s42.656-19.104 42.656-42.656l0-194.272c54.24-42.528 133.152-38.88 183.168 11.104 87.264 87.168 229.152 87.168 316.32 0 8.032-8.032 12.512-18.848 12.512-30.176l0-341.344c0-17.28-10.4-32.8-26.336-39.424z" fill="rgb(191, 30, 27)" transform="translate(1132.65625, 591.375) scale(0.01953125)"></path></g></g><g id="963836f49815"><rect x="1123.65625" y="637.734375" rx="1px" ry="1px" width="186" height="46" style="fill: transparent; stroke:none;"></rect><g><text text-anchor="start" align="top" anchor="start" font-size="13px" font-weight="400" fill="rgb(13, 11, 34)" style="font-size:13px;font-family:微软雅黑;color:#0D0B22;font-style:normal;text-align:left;font-weight:400;font-style: normal;"><tspan x="1157.65625" y="656.734375"><tspan>数据填补</tspan></tspan><tspan x="1157.65625" y="674.934375"><tspan>比如填补为均值、众数等</tspan></tspan></text></g><g><path d="M784.352 184.224c-15.968-6.624-34.304-2.944-46.496 9.248-53.92 53.888-141.696 53.92-195.68 0-87.264-87.168-229.12-87.168-316.32 0-8.032 7.968-12.512 18.848-12.512 30.176l0 554.656c0 23.552 19.072 42.656 42.656 42.656s42.656-19.104 42.656-42.656l0-194.272c54.24-42.528 133.152-38.88 183.168 11.104 87.264 87.168 229.152 87.168 316.32 0 8.032-8.032 12.512-18.848 12.512-30.176l0-341.344c0-17.28-10.4-32.8-26.336-39.424z" fill="rgb(113, 203, 45)" transform="translate(1132.65625, 643.375) scale(0.01953125)"></path></g></g><g id="6176b86bcb0a"><rect x="1123.65625" y="701.109375" rx="1px" ry="1px" width="57" height="30" style="fill: transparent; stroke:none;"></rect><g><text text-anchor="start" align="top" anchor="start" font-size="13px" font-weight="400" fill="rgb(13, 11, 34)" style="font-size:13px;font-family:微软雅黑;color:#0D0B22;font-style:normal;text-align:left;font-weight:400;font-style: normal;"><tspan x="1132.65625" y="721.65625"><tspan>不处理</tspan></tspan></text></g></g><g id="c225adcba74c"><rect x="964.65625" y="820.578125" rx="1px" ry="1px" width="83" height="29" style="fill: transparent; stroke:none;"></rect><g><text text-anchor="start" align="top" anchor="start" font-size="13px" font-weight="400" fill="rgb(13, 11, 34)" style="font-size:13px;font-family:微软雅黑;color:#0D0B22;font-style:normal;text-align:left;font-weight:400;font-style: normal;"><tspan x="973.65625" y="841.125"><tspan>异常值处理</tspan></tspan></text></g></g><g id="68b931e6bc3d"><rect x="1123.65625" y="747.84375" rx="1px" ry="1px" width="95" height="35" style="fill: transparent; stroke:none;"></rect><g><text text-anchor="start" align="top" anchor="start" font-size="13px" font-weight="400" fill="rgb(13, 11, 34)" style="font-size:13px;font-family:微软雅黑;color:#0D0B22;font-style:normal;text-align:left;font-weight:400;font-style: normal;"><tspan x="1157.65625" y="768.390625"><tspan>删除记录</tspan></tspan></text></g><g><path d="M784.352 184.224c-15.968-6.624-34.304-2.944-46.496 9.248-53.92 53.888-141.696 53.92-195.68 0-87.264-87.168-229.12-87.168-316.32 0-8.032 7.968-12.512 18.848-12.512 30.176l0 554.656c0 23.552 19.072 42.656 42.656 42.656s42.656-19.104 42.656-42.656l0-194.272c54.24-42.528 133.152-38.88 183.168 11.104 87.264 87.168 229.152 87.168 316.32 0 8.032-8.032 12.512-18.848 12.512-30.176l0-341.344c0-17.28-10.4-32.8-26.336-39.424z" fill="rgb(191, 30, 27)" transform="translate(1132.65625, 753.484375) scale(0.01953125)"></path></g></g><g id="a4db91232691"><rect x="1123.65625" y="799.84375" rx="1px" ry="1px" width="83" height="30" style="fill: transparent; stroke:none;"></rect><g><text text-anchor="start" align="top" anchor="start" font-size="13px" font-weight="400" fill="rgb(13, 11, 34)" style="font-size:13px;font-family:微软雅黑;color:#0D0B22;font-style:normal;text-align:left;font-weight:400;font-style: normal;"><tspan x="1132.65625" y="820.390625"><tspan>视为缺失值</tspan></tspan></text></g></g><g id="ae07a8f6b1ac"><rect x="1123.65625" y="846.578125" rx="1px" ry="1px" width="83" height="30" style="fill: transparent; stroke:none;"></rect><g><text text-anchor="start" align="top" anchor="start" font-size="13px" font-weight="400" fill="rgb(13, 11, 34)" style="font-size:13px;font-family:微软雅黑;color:#0D0B22;font-style:normal;text-align:left;font-weight:400;font-style: normal;"><tspan x="1132.65625" y="867.125"><tspan>用均值修正</tspan></tspan></text></g></g><g id="2c37f31e91df"><rect x="1123.65625" y="893.3125" rx="1px" ry="1px" width="57" height="30" style="fill: transparent; stroke:none;"></rect><g><text text-anchor="start" align="top" anchor="start" font-size="13px" font-weight="400" fill="rgb(13, 11, 34)" style="font-size:13px;font-family:微软雅黑;color:#0D0B22;font-style:normal;text-align:left;font-weight:400;font-style: normal;"><tspan x="1132.65625" y="913.859375"><tspan>不处理</tspan></tspan></text></g></g><g id="37d23e9dd116"><rect x="672.65625" y="1081.921875" rx="1px" ry="1px" width="70" height="30" style="fill: transparent; stroke:none;"></rect><g><text text-anchor="start" align="top" anchor="start" font-size="13px" font-weight="400" fill="rgb(13, 11, 34)" style="font-size:13px;font-family:微软雅黑;color:#0D0B22;font-style:normal;text-align:left;font-weight:400;font-style: normal;"><tspan x="681.65625" y="1102.46875"><tspan>数据转换</tspan></tspan></text></g></g><g id="389022f54504"><rect x="818.65625" y="948.359375" rx="1px" ry="1px" width="70" height="30" style="fill: transparent; stroke:none;"></rect><g><text text-anchor="start" align="top" anchor="start" font-size="13px" font-weight="400" fill="rgb(13, 11, 34)" style="font-size:13px;font-family:微软雅黑;color:#0D0B22;font-style:normal;text-align:left;font-weight:400;font-style: normal;"><tspan x="827.65625" y="968.90625"><tspan>基本概念</tspan></tspan></text></g></g><g id="2ce5f549140e"><rect x="964.65625" y="940.046875" rx="1px" ry="1px" width="422" height="46" style="fill: transparent; stroke:none;"></rect><g><text text-anchor="start" align="top" anchor="start" font-size="13px" font-weight="400" fill="rgb(13, 11, 34)" style="font-size:13px;font-family:微软雅黑;color:#0D0B22;font-style:normal;text-align:left;font-weight:400;font-style: normal;"><tspan x="973.65625" y="959.046875"><tspan>主要是指将数据转换为“适当”的形式，已适用于当前的挖掘任务或算法</tspan></tspan><tspan x="973.65625" y="977.246875"><tspan>比如连续变量离散化</tspan></tspan></text></g></g><g id="4a9286eb167f"><rect x="818.65625" y="1113.609375" rx="1px" ry="1px" width="70" height="30" style="fill: transparent; stroke:none;"></rect><g><text text-anchor="start" align="top" anchor="start" font-size="13px" font-weight="400" fill="rgb(13, 11, 34)" style="font-size:13px;font-family:微软雅黑;color:#0D0B22;font-style:normal;text-align:left;font-weight:400;font-style: normal;"><tspan x="827.65625" y="1134.15625"><tspan>常见处理</tspan></tspan></text></g></g><g id="358c5ddb83a5"><rect x="964.65625" y="1003.421875" rx="1px" ry="1px" width="134" height="35" style="fill: transparent; stroke:none;"></rect><g><text text-anchor="start" align="top" anchor="start" font-size="13px" font-weight="400" fill="rgb(13, 11, 34)" style="font-size:13px;font-family:微软雅黑;color:#0D0B22;font-style:normal;text-align:left;font-weight:400;font-style: normal;"><tspan x="998.65625" y="1023.96875"><tspan>连续变量离散化</tspan></tspan></text></g><g><path d="M784.352 184.224c-15.968-6.624-34.304-2.944-46.496 9.248-53.92 53.888-141.696 53.92-195.68 0-87.264-87.168-229.12-87.168-316.32 0-8.032 7.968-12.512 18.848-12.512 30.176l0 554.656c0 23.552 19.072 42.656 42.656 42.656s42.656-19.104 42.656-42.656l0-194.272c54.24-42.528 133.152-38.88 183.168 11.104 87.264 87.168 229.152 87.168 316.32 0 8.032-8.032 12.512-18.848 12.512-30.176l0-341.344c0-17.28-10.4-32.8-26.336-39.424z" fill="rgb(191, 30, 27)" transform="translate(973.65625, 1009.0625) scale(0.01953125)"></path></g></g><g id="5e7e27f1028c"><rect x="964.65625" y="1110.984375" rx="1px" ry="1px" width="154" height="35" style="fill: transparent; stroke:none;"></rect><g><text text-anchor="start" align="top" anchor="start" font-size="13px" font-weight="400" fill="rgb(13, 11, 34)" style="font-size:13px;font-family:微软雅黑;color:#0D0B22;font-style:normal;text-align:left;font-weight:400;font-style: normal;"><tspan x="998.65625" y="1131.53125"><tspan>数据标准化/归一化</tspan></tspan></text></g><g><path d="M784.352 184.224c-15.968-6.624-34.304-2.944-46.496 9.248-53.92 53.888-141.696 53.92-195.68 0-87.264-87.168-229.12-87.168-316.32 0-8.032 7.968-12.512 18.848-12.512 30.176l0 554.656c0 23.552 19.072 42.656 42.656 42.656s42.656-19.104 42.656-42.656l0-194.272c54.24-42.528 133.152-38.88 183.168 11.104 87.264 87.168 229.152 87.168 316.32 0 8.032-8.032 12.512-18.848 12.512-30.176l0-341.344c0-17.28-10.4-32.8-26.336-39.424z" fill="rgb(80, 194, 139)" transform="translate(973.65625, 1116.625) scale(0.01953125)"></path></g></g><g id="e1a7a6c52317"><rect x="1194.15625" y="1055.421875" rx="1px" ry="1px" width="642" height="46" style="fill: transparent; stroke:none;"></rect><g><text text-anchor="start" align="top" anchor="start" font-size="13px" font-weight="400" fill="rgb(13, 11, 34)" style="font-size:13px;font-family:微软雅黑;color:#0D0B22;font-style:normal;text-align:left;font-weight:400;font-style: normal;"><tspan x="1203.15625" y="1074.421875"><tspan>标准化指的是：将原数据转换为符合均值为0，标准差为1的标准正态分布的数据</tspan></tspan><tspan x="1203.15625" y="1092.621875"><tspan>比如高考时候有的考全国卷有的考地方卷，如果两个直接比较那是不行的，这个时候需要通过标准化后再比较</tspan></tspan></text></g></g><g id="7e7738784049"><rect x="1194.15625" y="1118.796875" rx="1px" ry="1px" width="476" height="83" style="fill: transparent; stroke:none;"></rect><g><text text-anchor="start" align="top" anchor="start" font-size="13px" font-weight="400" fill="rgb(13, 11, 34)" style="font-size:13px;font-family:微软雅黑;color:#0D0B22;font-style:normal;text-align:left;font-weight:400;font-style: normal;"><tspan x="1203.15625" y="1137.796875"><tspan>归一化指的是：把数据映射到0～1或-1~1的范围之内</tspan></tspan><tspan x="1203.15625" y="1155.996875"><tspan>比如两个特征一个房间数，一个房价，这两个特征的衡量尺度是不一样的，</tspan></tspan><tspan x="1203.15625" y="1174.196875"><tspan>如果这样的数据，直接喂给一些模型的话，可能导致只关注了房价相关的数据，</tspan></tspan><tspan x="1203.15625" y="1192.3968750000001"><tspan>而忽略了房间数的数据，所以这个时候就可以通过比如min-max的方式做归一化</tspan></tspan></text></g></g><g id="efa46c544972"><rect x="1866.15625" y="1112.953125" rx="1px" ry="1px" width="252" height="31" style="fill: transparent; stroke:none;"></rect><g><text text-anchor="start" align="top" anchor="start" font-size="16px" font-weight="normal" fill="rgb(13, 11, 34)" style="font-size:16px;font-family:微软雅黑;color:#0D0B22;font-style:normal;text-align:left;font-weight:normal;font-style: normal;"><tspan x="1872.15625" y="1133.609375"><tspan>具体使用场景和操作方式后续介绍</tspan></tspan></text></g></g><g id="875da29acbd2"><rect x="964.65625" y="1218.546875" rx="1px" ry="1px" width="95" height="35" style="fill: transparent; stroke:none;"></rect><g><text text-anchor="start" align="top" anchor="start" font-size="13px" font-weight="400" fill="rgb(13, 11, 34)" style="font-size:13px;font-family:微软雅黑;color:#0D0B22;font-style:normal;text-align:left;font-weight:400;font-style: normal;"><tspan x="998.65625" y="1239.09375"><tspan>特征构造</tspan></tspan></text></g><g><path d="M784.352 184.224c-15.968-6.624-34.304-2.944-46.496 9.248-53.92 53.888-141.696 53.92-195.68 0-87.264-87.168-229.12-87.168-316.32 0-8.032 7.968-12.512 18.848-12.512 30.176l0 554.656c0 23.552 19.072 42.656 42.656 42.656s42.656-19.104 42.656-42.656l0-194.272c54.24-42.528 133.152-38.88 183.168 11.104 87.264 87.168 229.152 87.168 316.32 0 8.032-8.032 12.512-18.848 12.512-30.176l0-341.344c0-17.28-10.4-32.8-26.336-39.424z" fill="rgb(191, 30, 27)" transform="translate(973.65625, 1224.1875) scale(0.01953125)"></path></g></g><g id="c644034cacab"><rect x="1135.65625" y="1221.171875" rx="1px" ry="1px" width="161" height="30" style="fill: transparent; stroke:none;"></rect><g><text text-anchor="start" align="top" anchor="start" font-size="13px" font-weight="400" fill="rgb(13, 11, 34)" style="font-size:13px;font-family:微软雅黑;color:#0D0B22;font-style:normal;text-align:left;font-weight:400;font-style: normal;"><tspan x="1144.65625" y="1241.71875"><tspan>比如由经纬度构造出城市</tspan></tspan></text></g></g><g id="153b6a89c8f5"><rect x="302" y="308" rx="1px" ry="1px" width="92" height="30" style="fill: transparent; stroke:none;"></rect><g><text text-anchor="start" align="top" anchor="start" font-size="16px" font-weight="normal" fill="rgb(13, 11, 34)" style="font-size:16px;font-family:微软雅黑;color:#0D0B22;font-style:normal;text-align:left;font-weight:normal;font-style: normal;"><tspan x="316" y="329.65625"><tspan>数据探索</tspan></tspan></text></g></g><g id="8414c69b7c74"><rect x="470" y="172.3125" rx="1px" ry="1px" width="122" height="30" style="fill: transparent; stroke:none;"></rect><g><text text-anchor="start" align="top" anchor="start" font-size="13px" font-weight="400" fill="rgb(13, 11, 34)" style="font-size:13px;font-family:微软雅黑;color:#0D0B22;font-style:normal;text-align:left;font-weight:400;font-style: normal;"><tspan x="479" y="192.859375"><tspan>常见数据质量分析</tspan></tspan></text></g></g><g id="da6375e0d629"><rect x="668" y="138" rx="1px" ry="1px" width="108" height="35" style="fill: transparent; stroke:none;"></rect><g><text text-anchor="start" align="top" anchor="start" font-size="13px" font-weight="400" fill="rgb(13, 11, 34)" style="font-size:13px;font-family:微软雅黑;color:#0D0B22;font-style:normal;text-align:left;font-weight:400;font-style: normal;"><tspan x="702" y="158.546875"><tspan>缺失值分析</tspan></tspan></text></g><g><path d="M784.352 184.224c-15.968-6.624-34.304-2.944-46.496 9.248-53.92 53.888-141.696 53.92-195.68 0-87.264-87.168-229.12-87.168-316.32 0-8.032 7.968-12.512 18.848-12.512 30.176l0 554.656c0 23.552 19.072 42.656 42.656 42.656s42.656-19.104 42.656-42.656l0-194.272c54.24-42.528 133.152-38.88 183.168 11.104 87.264 87.168 229.152 87.168 316.32 0 8.032-8.032 12.512-18.848 12.512-30.176l0-341.344c0-17.28-10.4-32.8-26.336-39.424z" fill="rgb(191, 30, 27)" transform="translate(677, 143.640625) scale(0.01953125)"></path></g></g><g id="24be0bb0df83"><rect x="852" y="140.625" rx="1px" ry="1px" width="304" height="30" style="fill: transparent; stroke:none;"></rect><g><text text-anchor="start" align="top" anchor="start" font-size="13px" font-weight="400" fill="rgb(13, 11, 34)" style="font-size:13px;font-family:微软雅黑;color:#0D0B22;font-style:normal;text-align:left;font-weight:400;font-style: normal;"><tspan x="861" y="161.171875"><tspan>比如：社区字典中，某个小区的供暖属性未采集到</tspan></tspan></text></g></g><g id="58898b018fe2"><rect x="668" y="195.6875" rx="1px" ry="1px" width="108" height="35" style="fill: transparent; stroke:none;"></rect><g><text text-anchor="start" align="top" anchor="start" font-size="13px" font-weight="400" fill="rgb(13, 11, 34)" style="font-size:13px;font-family:微软雅黑;color:#0D0B22;font-style:normal;text-align:left;font-weight:400;font-style: normal;"><tspan x="702" y="216.234375"><tspan>异常值分析</tspan></tspan></text></g><g><path d="M784.352 184.224c-15.968-6.624-34.304-2.944-46.496 9.248-53.92 53.888-141.696 53.92-195.68 0-87.264-87.168-229.12-87.168-316.32 0-8.032 7.968-12.512 18.848-12.512 30.176l0 554.656c0 23.552 19.072 42.656 42.656 42.656s42.656-19.104 42.656-42.656l0-194.272c54.24-42.528 133.152-38.88 183.168 11.104 87.264 87.168 229.152 87.168 316.32 0 8.032-8.032 12.512-18.848 12.512-30.176l0-341.344c0-17.28-10.4-32.8-26.336-39.424z" fill="rgb(80, 194, 139)" transform="translate(677, 201.328125) scale(0.01953125)"></path></g></g><g id="ef5fccb5dc6b"><rect x="852" y="190" rx="1px" ry="1px" width="252" height="46" style="fill: transparent; stroke:none;"></rect><g><text text-anchor="start" align="top" anchor="start" font-size="13px" font-weight="400" fill="rgb(13, 11, 34)" style="font-size:13px;font-family:微软雅黑;color:#0D0B22;font-style:normal;text-align:left;font-weight:400;font-style: normal;"><tspan x="861" y="209"><tspan>比如：年龄不在正常范围内</tspan></tspan><tspan x="861" y="227.2"><tspan>（需要知道数据实际正常的范围是什么）</tspan></tspan></text></g></g><g id="9e8526f017bc"><rect x="470" y="365.84375" rx="1px" ry="1px" width="122" height="30" style="fill: transparent; stroke:none;"></rect><g><text text-anchor="start" align="top" anchor="start" font-size="13px" font-weight="400" fill="rgb(13, 11, 34)" style="font-size:13px;font-family:微软雅黑;color:#0D0B22;font-style:normal;text-align:left;font-weight:400;font-style: normal;"><tspan x="479" y="386.390625"><tspan>常见数据特征分析</tspan></tspan></text></g></g><g id="98f560f501dc"><rect x="668" y="268.15625" rx="1px" ry="1px" width="95" height="35" style="fill: transparent; stroke:none;"></rect><g><text text-anchor="start" align="top" anchor="start" font-size="13px" font-weight="400" fill="rgb(13, 11, 34)" style="font-size:13px;font-family:微软雅黑;color:#0D0B22;font-style:normal;text-align:left;font-weight:400;font-style: normal;"><tspan x="702" y="288.703125"><tspan>分布分析</tspan></tspan></text></g><g><path d="M784.352 184.224c-15.968-6.624-34.304-2.944-46.496 9.248-53.92 53.888-141.696 53.92-195.68 0-87.264-87.168-229.12-87.168-316.32 0-8.032 7.968-12.512 18.848-12.512 30.176l0 554.656c0 23.552 19.072 42.656 42.656 42.656s42.656-19.104 42.656-42.656l0-194.272c54.24-42.528 133.152-38.88 183.168 11.104 87.264 87.168 229.152 87.168 316.32 0 8.032-8.032 12.512-18.848 12.512-30.176l0-341.344c0-17.28-10.4-32.8-26.336-39.424z" fill="rgb(191, 30, 27)" transform="translate(677, 273.796875) scale(0.01953125)"></path></g></g><g id="92ec208e5613"><rect x="839" y="253.375" rx="1px" ry="1px" width="382" height="65" style="fill: transparent; stroke:none;"></rect><g><text text-anchor="start" align="top" anchor="start" font-size="13px" font-weight="400" fill="rgb(13, 11, 34)" style="font-size:13px;font-family:微软雅黑;color:#0D0B22;font-style:normal;text-align:left;font-weight:400;font-style: normal;"><tspan x="848" y="272.375"><tspan>能够揭示数据的分布特征和分布类型，</tspan></tspan><tspan x="848" y="290.575"><tspan>比如对于定量数据，可以知道数据分布是对称的还是非对称的；</tspan></tspan><tspan x="848" y="308.775"><tspan>对于定性数据，可以知道哪种类别的数据占比较多</tspan></tspan></text></g></g><g id="7494f8fc20f5"><rect x="668" y="340.625" rx="1px" ry="1px" width="108" height="35" style="fill: transparent; stroke:none;"></rect><g><text text-anchor="start" align="top" anchor="start" font-size="13px" font-weight="400" fill="rgb(13, 11, 34)" style="font-size:13px;font-family:微软雅黑;color:#0D0B22;font-style:normal;text-align:left;font-weight:400;font-style: normal;"><tspan x="702" y="361.171875"><tspan>统计量分析</tspan></tspan></text></g><g><path d="M784.352 184.224c-15.968-6.624-34.304-2.944-46.496 9.248-53.92 53.888-141.696 53.92-195.68 0-87.264-87.168-229.12-87.168-316.32 0-8.032 7.968-12.512 18.848-12.512 30.176l0 554.656c0 23.552 19.072 42.656 42.656 42.656s42.656-19.104 42.656-42.656l0-194.272c54.24-42.528 133.152-38.88 183.168 11.104 87.264 87.168 229.152 87.168 316.32 0 8.032-8.032 12.512-18.848 12.512-30.176l0-341.344c0-17.28-10.4-32.8-26.336-39.424z" fill="rgb(191, 30, 27)" transform="translate(677, 346.265625) scale(0.01953125)"></path></g></g><g id="6d67c7d40c3b"><rect x="852" y="334.9375" rx="1px" ry="1px" width="317" height="46" style="fill: transparent; stroke:none;"></rect><g><text text-anchor="start" align="top" anchor="start" font-size="13px" font-weight="400" fill="rgb(13, 11, 34)" style="font-size:13px;font-family:微软雅黑;color:#0D0B22;font-style:normal;text-align:left;font-weight:400;font-style: normal;"><tspan x="861" y="353.9375"><tspan>主要针对定量数据进行统计描述，</tspan></tspan><tspan x="861" y="372.1375"><tspan>用来反映数据是集中的还是离中的，比如均值、方差</tspan></tspan></text></g></g><g id="b91478a6ec8e"><rect x="668" y="404" rx="1px" ry="1px" width="82" height="35" style="fill: transparent; stroke:none;"></rect><g><text text-anchor="start" align="top" anchor="start" font-size="13px" font-weight="400" fill="rgb(13, 11, 34)" style="font-size:13px;font-family:微软雅黑;color:#0D0B22;font-style:normal;text-align:left;font-weight:400;font-style: normal;"><tspan x="702" y="424.546875"><tspan>周期性</tspan></tspan></text></g><g><path d="M784.352 184.224c-15.968-6.624-34.304-2.944-46.496 9.248-53.92 53.888-141.696 53.92-195.68 0-87.264-87.168-229.12-87.168-316.32 0-8.032 7.968-12.512 18.848-12.512 30.176l0 554.656c0 23.552 19.072 42.656 42.656 42.656s42.656-19.104 42.656-42.656l0-194.272c54.24-42.528 133.152-38.88 183.168 11.104 87.264 87.168 229.152 87.168 316.32 0 8.032-8.032 12.512-18.848 12.512-30.176l0-341.344c0-17.28-10.4-32.8-26.336-39.424z" fill="rgb(80, 194, 139)" transform="translate(677, 409.640625) scale(0.01953125)"></path></g></g><g id="0ac1aa33fb6c"><rect x="826" y="398.3125" rx="1px" ry="1px" width="200" height="46" style="fill: transparent; stroke:none;"></rect><g><text text-anchor="start" align="top" anchor="start" font-size="13px" font-weight="400" fill="rgb(13, 11, 34)" style="font-size:13px;font-family:微软雅黑;color:#0D0B22;font-style:normal;text-align:left;font-weight:400;font-style: normal;"><tspan x="835" y="417.3125"><tspan>探索数据随时间的变化趋势</tspan></tspan><tspan x="835" y="435.5125"><tspan>可以用来做预测或发现异常趋势</tspan></tspan></text></g></g><g id="744cbeef430b"><rect x="668" y="467.375" rx="1px" ry="1px" width="82" height="35" style="fill: transparent; stroke:none;"></rect><g><text text-anchor="start" align="top" anchor="start" font-size="13px" font-weight="400" fill="rgb(13, 11, 34)" style="font-size:13px;font-family:微软雅黑;color:#0D0B22;font-style:normal;text-align:left;font-weight:400;font-style: normal;"><tspan x="702" y="487.921875"><tspan>相关性</tspan></tspan></text></g><g><path d="M784.352 184.224c-15.968-6.624-34.304-2.944-46.496 9.248-53.92 53.888-141.696 53.92-195.68 0-87.264-87.168-229.12-87.168-316.32 0-8.032 7.968-12.512 18.848-12.512 30.176l0 554.656c0 23.552 19.072 42.656 42.656 42.656s42.656-19.104 42.656-42.656l0-194.272c54.24-42.528 133.152-38.88 183.168 11.104 87.264 87.168 229.152 87.168 316.32 0 8.032-8.032 12.512-18.848 12.512-30.176l0-341.344c0-17.28-10.4-32.8-26.336-39.424z" fill="rgb(191, 30, 27)" transform="translate(677, 473.015625) scale(0.01953125)"></path></g></g><g id="92f7193a5a81"><rect x="826" y="461.6875" rx="1px" ry="1px" width="512" height="46" style="fill: transparent; stroke:none;"></rect><g><text text-anchor="start" align="top" anchor="start" font-size="13px" font-weight="400" fill="rgb(13, 11, 34)" style="font-size:13px;font-family:微软雅黑;color:#0D0B22;font-style:normal;text-align:left;font-weight:400;font-style: normal;"><tspan x="835" y="480.6875"><tspan>探索两个变量之间的相关程度，</tspan></tspan><tspan x="835" y="498.8875"><tspan>比如两个变量之间线性相关，那这样在分析或建模的时候，我们就可以只选择一个变量</tspan></tspan></text></g></g><g id="d5d0415b66bc"><rect x="302" y="53.203125" rx="1px" ry="1px" width="124" height="30" style="fill: transparent; stroke:none;"></rect><g><text text-anchor="start" align="top" anchor="start" font-size="16px" font-weight="normal" fill="rgb(13, 11, 34)" style="font-size:16px;font-family:微软雅黑;color:#0D0B22;font-style:normal;text-align:left;font-weight:normal;font-style: normal;"><tspan x="316" y="74.859375"><tspan>明确分析目标</tspan></tspan></text></g></g><g id="f0513208fe24"><rect x="502" y="30" rx="1px" ry="1px" width="200" height="30" style="fill: transparent; stroke:none;"></rect><g><text text-anchor="start" align="top" anchor="start" font-size="13px" font-weight="400" fill="rgb(13, 11, 34)" style="font-size:13px;font-family:微软雅黑;color:#0D0B22;font-style:normal;text-align:left;font-weight:400;font-style: normal;"><tspan x="511" y="50.546875"><tspan>理解任务，明确到底要分析什么</tspan></tspan></text></g></g><g id="454ff68f45a7"><rect x="502" y="76.734375" rx="1px" ry="1px" width="96" height="30" style="fill: transparent; stroke:none;"></rect><g><text text-anchor="start" align="top" anchor="start" font-size="13px" font-weight="400" fill="rgb(13, 11, 34)" style="font-size:13px;font-family:微软雅黑;color:#0D0B22;font-style:normal;text-align:left;font-weight:400;font-style: normal;"><tspan x="511" y="97.28125"><tspan>确定分析指标</tspan></tspan></text></g></g><g transform="translate(302, 1286)" id="sdjakdjak0"><g id="subline_8b771c2c5625" transform="translate(0.5,-0.5)"><path id="line_2b8e32957503" d="M 136 31 L 136 31 M 136 31 C 181.625 31 173.8125 31 211.625 31 L 281.625 31" p="8b771c2c5625" stroke="#DD489D" fill="none" stroke-linecap="round" stroke-width="3"></path></g><g transform="translate(0.5,0)"></g><g class="svg-summary-con" transform="translate(0.5,0.5)"></g><g class="svg-boundary-con" transform="translate(0.5,0.5)"></g></g><g transform="translate(302, 539)" id="sdjakdjak1"><g id="subline_e8b7a678aff8" transform="translate(0.5,-0.5)"><path id="line_898cb76c3814" d="M 295 384 L 295 384 M 295 384 C 340.65625 384 332.828125 209 370.65625 209 L 440.65625 209" p="e8b7a678aff8" stroke="#0FBAB0" fill="none" stroke-linecap="round" stroke-width="3"></path><path id="line_9788445556fd" d="M 440.65625 209 L 440.65625 209 M 440.65625 209 C 486.65625 209 478.65625 32 516.65625 32 L 586.65625 32" p="898cb76c3814" stroke="#0FBAB0" fill="none" stroke-linecap="round" stroke-width="3"></path><path id="line_4574df227846" d="M 586.65625 32 L 586.65625 32 M 586.65625 32 C 632.65625 32 624.65625 32 662.65625 32 L 1200.65625 32" p="9788445556fd" stroke="#0FBAB0" fill="none" stroke-linecap="round" stroke-width="3"></path><path id="line_08bcaf624255" d="M 440.65625 209 L 440.65625 209 M 440.65625 209 C 486.65625 209 478.65625 232 516.65625 232 L 586.65625 232" p="898cb76c3814" stroke="#0FBAB0" fill="none" stroke-linecap="round" stroke-width="3"></path><path id="line_48abc62e4d12" d="M 586.65625 232 L 586.65625 232 M 586.65625 232 C 632.65625 232 624.65625 134 662.65625 134 L 745.65625 134" p="08bcaf624255" stroke="#0FBAB0" fill="none" stroke-linecap="round" stroke-width="3"></path><path id="line_da65ed5c9599" d="M 745.65625 134 L 745.65625 134 M 745.65625 134 C 791.65625 134 783.65625 83 821.65625 83 L 916.65625 83" p="48abc62e4d12" stroke="#0FBAB0" fill="none" stroke-linecap="round" stroke-width="3"></path><path id="line_963836f49815" d="M 745.65625 134 L 745.65625 134 M 745.65625 134 C 791.65625 134 783.65625 143 821.65625 143 L 1007.65625 143" p="48abc62e4d12" stroke="#0FBAB0" fill="none" stroke-linecap="round" stroke-width="3"></path><path id="line_6176b86bcb0a" d="M 745.65625 134 L 745.65625 134 M 745.65625 134 C 791.65625 134 783.65625 194 821.65625 194 L 878.65625 194" p="48abc62e4d12" stroke="#0FBAB0" fill="none" stroke-linecap="round" stroke-width="3"></path><path id="line_c225adcba74c" d="M 586.65625 232 L 586.65625 232 M 586.65625 232 C 632.65625 232 624.65625 312 662.65625 312 L 745.65625 312" p="08bcaf624255" stroke="#0FBAB0" fill="none" stroke-linecap="round" stroke-width="3"></path><path id="line_68b931e6bc3d" d="M 745.65625 312 L 745.65625 312 M 745.65625 312 C 791.65625 312 783.65625 245 821.65625 245 L 916.65625 245" p="c225adcba74c" stroke="#0FBAB0" fill="none" stroke-linecap="round" stroke-width="3"></path><path id="line_a4db91232691" d="M 745.65625 312 L 745.65625 312 M 745.65625 312 C 791.65625 312 783.65625 292 821.65625 292 L 904.65625 292" p="c225adcba74c" stroke="#0FBAB0" fill="none" stroke-linecap="round" stroke-width="3"></path><path id="line_ae07a8f6b1ac" d="M 745.65625 312 L 745.65625 312 M 745.65625 312 C 791.65625 312 783.65625 339 821.65625 339 L 904.65625 339" p="c225adcba74c" stroke="#0FBAB0" fill="none" stroke-linecap="round" stroke-width="3"></path><path id="line_2c37f31e91df" d="M 745.65625 312 L 745.65625 312 M 745.65625 312 C 791.65625 312 783.65625 386 821.65625 386 L 878.65625 386" p="c225adcba74c" stroke="#0FBAB0" fill="none" stroke-linecap="round" stroke-width="3"></path><path id="line_37d23e9dd116" d="M 295 384 L 295 384 M 295 384 C 340.65625 384 332.828125 574 370.65625 574 L 440.65625 574" p="e8b7a678aff8" stroke="#0FBAB0" fill="none" stroke-linecap="round" stroke-width="3"></path><path id="line_389022f54504" d="M 440.65625 574 L 440.65625 574 M 440.65625 574 C 486.65625 574 478.65625 441 516.65625 441 L 586.65625 441" p="37d23e9dd116" stroke="#0FBAB0" fill="none" stroke-linecap="round" stroke-width="3"></path><path id="line_2ce5f549140e" d="M 586.65625 441 L 586.65625 441 M 586.65625 441 C 632.65625 441 624.65625 449 662.65625 449 L 1084.65625 449" p="389022f54504" stroke="#0FBAB0" fill="none" stroke-linecap="round" stroke-width="3"></path><path id="line_4a9286eb167f" d="M 440.65625 574 L 440.65625 574 M 440.65625 574 C 486.65625 574 478.65625 606 516.65625 606 L 586.65625 606" p="37d23e9dd116" stroke="#0FBAB0" fill="none" stroke-linecap="round" stroke-width="3"></path><path id="line_358c5ddb83a5" d="M 586.65625 606 L 586.65625 606 M 586.65625 606 C 632.65625 606 624.65625 500 662.65625 500 L 796.65625 500" p="4a9286eb167f" stroke="#0FBAB0" fill="none" stroke-linecap="round" stroke-width="3"></path><path id="line_5e7e27f1028c" d="M 586.65625 606 L 586.65625 606 M 586.65625 606 C 632.65625 606 624.65625 608 662.65625 608 L 816.65625 608" p="4a9286eb167f" stroke="#0FBAB0" fill="none" stroke-linecap="round" stroke-width="3"></path><path id="line_e1a7a6c52317" d="M 816.65625 608 L 816.65625 608 M 816.65625 608 C 862.15625 608 854.40625 564 892.15625 564 L 1534.15625 564" p="5e7e27f1028c" stroke="#0FBAB0" fill="none" stroke-linecap="round" stroke-width="3"></path><path id="line_7e7738784049" d="M 816.65625 608 L 816.65625 608 M 816.65625 608 C 862.15625 608 854.40625 664 892.15625 664 L 1368.15625 664" p="5e7e27f1028c" stroke="#0FBAB0" fill="none" stroke-linecap="round" stroke-width="3"></path><path id="line_875da29acbd2" d="M 586.65625 606 L 586.65625 606 M 586.65625 606 C 632.65625 606 624.65625 716 662.65625 716 L 757.65625 716" p="4a9286eb167f" stroke="#0FBAB0" fill="none" stroke-linecap="round" stroke-width="3"></path><path id="line_c644034cacab" d="M 757.65625 716 L 757.65625 716 M 757.65625 716 C 803.65625 716 795.65625 714 833.65625 714 L 994.65625 714" p="875da29acbd2" stroke="#0FBAB0" fill="none" stroke-linecap="round" stroke-width="3"></path></g><g transform="translate(0.5,0)"></g><g class="svg-summary-con" transform="translate(0.5,0.5)"><path id="sum_efa46c544972" fill="none" stroke="#bf1e1b" stroke-width="1" d=" M 1546 520 C 1563 524 1538 585 1560 590 M 1546 660 C 1563 656 1538 595 1560 590" stroke-linecap="round"></path></g><g class="svg-boundary-con" transform="translate(0.5,0.5)"></g></g><g transform="translate(302, 138)" id="sdjakdjak2"><g id="subline_153b6a89c8f5" transform="translate(0.5,-0.5)"><path id="line_8414c69b7c74" d="M 92 201 L 92 201 M 92 201 C 138 201 130 66 168 66 L 290 66" p="153b6a89c8f5" stroke="#80BA4C" fill="none" stroke-linecap="round" stroke-width="3"></path><path id="line_da6375e0d629" d="M 290 66 L 290 66 M 290 66 C 336 66 328 36 366 36 L 474 36" p="8414c69b7c74" stroke="#80BA4C" fill="none" stroke-linecap="round" stroke-width="3"></path><path id="line_24be0bb0df83" d="M 474 36 L 474 36 M 474 36 C 520 36 512 34 550 34 L 854 34" p="da6375e0d629" stroke="#80BA4C" fill="none" stroke-linecap="round" stroke-width="3"></path><path id="line_58898b018fe2" d="M 290 66 L 290 66 M 290 66 C 336 66 328 94 366 94 L 474 94" p="8414c69b7c74" stroke="#80BA4C" fill="none" stroke-linecap="round" stroke-width="3"></path><path id="line_ef5fccb5dc6b" d="M 474 94 L 474 94 M 474 94 C 520 94 512 100 550 100 L 802 100" p="58898b018fe2" stroke="#80BA4C" fill="none" stroke-linecap="round" stroke-width="3"></path><path id="line_9e8526f017bc" d="M 92 201 L 92 201 M 92 201 C 138 201 130 259 168 259 L 290 259" p="153b6a89c8f5" stroke="#80BA4C" fill="none" stroke-linecap="round" stroke-width="3"></path><path id="line_98f560f501dc" d="M 290 259 L 290 259 M 290 259 C 336 259 328 166 366 166 L 461 166" p="9e8526f017bc" stroke="#80BA4C" fill="none" stroke-linecap="round" stroke-width="3"></path><path id="line_92ec208e5613" d="M 461 166 L 461 166 M 461 166 C 507 166 499 181 537 181 L 919 181" p="98f560f501dc" stroke="#80BA4C" fill="none" stroke-linecap="round" stroke-width="3"></path><path id="line_7494f8fc20f5" d="M 290 259 L 290 259 M 290 259 C 336 259 328 239 366 239 L 474 239" p="9e8526f017bc" stroke="#80BA4C" fill="none" stroke-linecap="round" stroke-width="3"></path><path id="line_6d67c7d40c3b" d="M 474 239 L 474 239 M 474 239 C 520 239 512 245 550 245 L 867 245" p="7494f8fc20f5" stroke="#80BA4C" fill="none" stroke-linecap="round" stroke-width="3"></path><path id="line_b91478a6ec8e" d="M 290 259 L 290 259 M 290 259 C 336 259 328 302 366 302 L 448 302" p="9e8526f017bc" stroke="#80BA4C" fill="none" stroke-linecap="round" stroke-width="3"></path><path id="line_0ac1aa33fb6c" d="M 448 302 L 448 302 M 448 302 C 494 302 486 308 524 308 L 724 308" p="b91478a6ec8e" stroke="#80BA4C" fill="none" stroke-linecap="round" stroke-width="3"></path><path id="line_744cbeef430b" d="M 290 259 L 290 259 M 290 259 C 336 259 328 365 366 365 L 448 365" p="9e8526f017bc" stroke="#80BA4C" fill="none" stroke-linecap="round" stroke-width="3"></path><path id="line_92f7193a5a81" d="M 448 365 L 448 365 M 448 365 C 494 365 486 371 524 371 L 1036 371" p="744cbeef430b" stroke="#80BA4C" fill="none" stroke-linecap="round" stroke-width="3"></path></g><g transform="translate(0.5,0)"></g><g class="svg-summary-con" transform="translate(0.5,0.5)"></g><g class="svg-boundary-con" transform="translate(0.5,0.5)"></g></g><g transform="translate(302, 30)" id="sdjakdjak3"><g id="subline_d5d0415b66bc" transform="translate(0.5,-0.5)"><path id="line_f0513208fe24" d="M 124 54 L 124 54 M 124 54 C 170 54 162 32 200 32 L 400 32" p="d5d0415b66bc" stroke="#7549C5" fill="none" stroke-linecap="round" stroke-width="3"></path><path id="line_454ff68f45a7" d="M 124 54 L 124 54 M 124 54 C 170 54 162 78 200 78 L 296 78" p="d5d0415b66bc" stroke="#7549C5" fill="none" stroke-linecap="round" stroke-width="3"></path></g><g transform="translate(0.5,0)"></g><g class="svg-summary-con" transform="translate(0.5,0.5)"></g><g class="svg-boundary-con" transform="translate(0.5,0.5)"></g></g><g transform="translate(30, 653.5)" id="sdjakdjak4"><g id="subline_root" transform="translate(0.5,-0.5)"></g><g transform="translate(0.5,0)"></g><g class="svg-summary-con" transform="translate(0.5,0.5)"></g><g class="svg-boundary-con" transform="translate(0.5,0.5)"></g></g><g transform="translate(1376, 292.5)" id="sdjakdjak6"><g id="subline_30a65e8aa580" transform="translate(0.5,-0.5)"></g><g transform="translate(0.5,0)"></g><g class="svg-summary-con" transform="translate(0.5,0.5)"></g><g class="svg-boundary-con" transform="translate(0.5,0.5)"></g></g><g id="root"><rect x="30" y="653.5" rx="7px" ry="7px" width="172" height="68" style="fill: #ffffff; stroke:none;"></rect><g><text text-anchor="start" align="top" anchor="start" font-size="24px" font-weight="normal" fill="rgb(42, 46, 54)" style="font-size:24px;font-family:微软雅黑;color:#2A2E36;font-style:normal;text-align:left;font-weight:normal;font-style: normal;"><tspan x="68" y="695.5"><tspan>分析步骤</tspan></tspan></text></g></g><g id="30a65e8aa580"><rect x="1376" y="292.5" rx="1px" ry="1px" width="467" height="62" style="fill: transparent; stroke:none;"></rect><g><text text-anchor="start" align="top" anchor="start" font-size="13px" font-weight="normal" fill="rgb(42, 46, 54)" style="font-size:13px;font-family:微软雅黑;color:#2A2E36;font-style:normal;text-align:left;font-weight:normal;font-style: normal;"><tspan x="1382" y="308.5"><tspan>具体分析过程中画什么样的图来辅助观察，后面再介绍</tspan></tspan><tspan x="1382" y="326.7"><tspan>比如在分析异常值的时候，如果数据量少可能还能用肉眼筛选出来，</tspan></tspan><tspan x="1382" y="344.9"><tspan>但是如果数据量多的时候，可能就需要通过统计或者画比如箱线图的方式来观察</tspan></tspan></text></g><line x1="1376" y1="355" x2="1843" y2="355" style="stroke:rgb(13, 11, 34);stroke-width:2"></line></g></svg>
